<mxfile host="app.diagrams.net" agent="Mozilla/5.0 (Windows NT 10.0; Win64; x64) AppleWebKit/537.36 (KHTML, like Gecko) Chrome/131.0.0.0 Safari/537.36" version="25.0.3">
  <diagram name="Page-1" id="13e1069c-82ec-6db2-03f1-153e76fe0fe0">
    <mxGraphModel grid="1" page="1" gridSize="10" guides="1" tooltips="1" connect="1" arrows="1" fold="1" pageScale="1" pageWidth="1100" pageHeight="850" background="none" math="0" shadow="0">
      <root>
        <mxCell id="0" />
        <mxCell id="1" parent="0" />
        <mxCell id="7baba1c4bc27f4b0-2" value="userManager" style="shape=umlLifeline;perimeter=lifelinePerimeter;whiteSpace=wrap;html=1;container=1;collapsible=0;recursiveResize=0;outlineConnect=0;rounded=1;shadow=0;comic=0;labelBackgroundColor=none;strokeWidth=1;fontFamily=Verdana;fontSize=12;align=center;" vertex="1" parent="1">
          <mxGeometry x="240" y="80" width="100" height="380" as="geometry" />
        </mxCell>
        <mxCell id="7baba1c4bc27f4b0-10" value="" style="html=1;points=[];perimeter=orthogonalPerimeter;rounded=0;shadow=0;comic=0;labelBackgroundColor=none;strokeWidth=1;fontFamily=Verdana;fontSize=12;align=center;" vertex="1" parent="7baba1c4bc27f4b0-2">
          <mxGeometry x="46" y="100" width="10" height="280" as="geometry" />
        </mxCell>
        <mxCell id="7baba1c4bc27f4b0-11" value="Create User" style="html=1;verticalAlign=bottom;endArrow=block;entryX=0;entryY=0;labelBackgroundColor=none;fontFamily=Verdana;fontSize=12;edgeStyle=elbowEdgeStyle;elbow=horizontal;" edge="1" parent="7baba1c4bc27f4b0-2">
          <mxGeometry x="-0.004" relative="1" as="geometry">
            <mxPoint x="-90.00000000000023" y="239.9999999999999" as="sourcePoint" />
            <mxPoint x="45" y="239.9999999999999" as="targetPoint" />
            <mxPoint as="offset" />
          </mxGeometry>
        </mxCell>
        <mxCell id="7baba1c4bc27f4b0-8" value="AccountController" style="shape=umlLifeline;perimeter=lifelinePerimeter;whiteSpace=wrap;html=1;container=1;collapsible=0;recursiveResize=0;outlineConnect=0;rounded=1;shadow=0;comic=0;labelBackgroundColor=none;strokeWidth=1;fontFamily=Verdana;fontSize=12;align=center;" vertex="1" parent="1">
          <mxGeometry x="100" y="80" width="120" height="380" as="geometry" />
        </mxCell>
        <mxCell id="7baba1c4bc27f4b0-9" value="" style="html=1;points=[];perimeter=orthogonalPerimeter;rounded=0;shadow=0;comic=0;labelBackgroundColor=none;strokeWidth=1;fontFamily=Verdana;fontSize=12;align=center;" vertex="1" parent="7baba1c4bc27f4b0-8">
          <mxGeometry x="47" y="100" width="10" height="280" as="geometry" />
        </mxCell>
        <mxCell id="rYLVnU9bu6jDrqOBG8kV-12" value="Model State (DTO)&lt;div&gt;Invalide&lt;/div&gt;" style="html=1;verticalAlign=bottom;endArrow=block;labelBackgroundColor=none;fontFamily=Verdana;fontSize=12;elbow=vertical;edgeStyle=orthogonalEdgeStyle;curved=1;entryX=1;entryY=0.286;entryPerimeter=0;exitX=1.038;exitY=0.345;exitPerimeter=0;" edge="1" parent="7baba1c4bc27f4b0-8">
          <mxGeometry x="-0.2306" relative="1" as="geometry">
            <mxPoint x="64.96000000000001" y="150" as="sourcePoint" />
            <mxPoint x="69.96000000000001" y="188" as="targetPoint" />
            <Array as="points">
              <mxPoint x="119.96000000000001" y="150" />
              <mxPoint x="119.96000000000001" y="188" />
            </Array>
            <mxPoint y="-1" as="offset" />
          </mxGeometry>
        </mxCell>
        <mxCell id="rYLVnU9bu6jDrqOBG8kV-15" value="" style="endArrow=classic;html=1;rounded=0;dashed=1;entryX=1.304;entryY=0.231;entryDx=0;entryDy=0;entryPerimeter=0;" edge="1" parent="7baba1c4bc27f4b0-8">
          <mxGeometry width="50" height="50" relative="1" as="geometry">
            <mxPoint x="180" y="289" as="sourcePoint" />
            <mxPoint x="-100.00000000000003" y="289.23" as="targetPoint" />
          </mxGeometry>
        </mxCell>
        <mxCell id="rYLVnU9bu6jDrqOBG8kV-20" value="" style="endArrow=classic;html=1;rounded=0;entryX=1.304;entryY=0.231;entryDx=0;entryDy=0;entryPerimeter=0;" edge="1" parent="7baba1c4bc27f4b0-8">
          <mxGeometry width="50" height="50" relative="1" as="geometry">
            <mxPoint x="180" y="330" as="sourcePoint" />
            <mxPoint x="-100.00000000000003" y="330.23" as="targetPoint" />
          </mxGeometry>
        </mxCell>
        <mxCell id="rYLVnU9bu6jDrqOBG8kV-21" value="Ok Created" style="text;html=1;align=center;verticalAlign=middle;resizable=0;points=[];autosize=1;strokeColor=none;fillColor=none;" vertex="1" parent="7baba1c4bc27f4b0-8">
          <mxGeometry x="-65" y="300" width="80" height="30" as="geometry" />
        </mxCell>
        <mxCell id="rYLVnU9bu6jDrqOBG8kV-1" value="Utilisateur&lt;div&gt;Normal&lt;/div&gt;" style="shape=umlActor;verticalLabelPosition=bottom;verticalAlign=top;html=1;outlineConnect=0;" vertex="1" parent="1">
          <mxGeometry x="-20" y="50" width="30" height="60" as="geometry" />
        </mxCell>
        <mxCell id="rYLVnU9bu6jDrqOBG8kV-2" value="" style="html=1;points=[];perimeter=orthogonalPerimeter;rounded=0;shadow=0;comic=0;labelBackgroundColor=none;strokeWidth=1;fontFamily=Verdana;fontSize=12;align=center;" vertex="1" parent="1">
          <mxGeometry x="-10" y="160" width="10" height="290" as="geometry" />
        </mxCell>
        <mxCell id="rYLVnU9bu6jDrqOBG8kV-3" value="" style="endArrow=classic;html=1;rounded=0;exitX=1.081;exitY=0.081;exitDx=0;exitDy=0;exitPerimeter=0;" edge="1" parent="1">
          <mxGeometry width="50" height="50" relative="1" as="geometry">
            <mxPoint x="0.8099999999997181" y="211.88" as="sourcePoint" />
            <mxPoint x="140" y="212" as="targetPoint" />
          </mxGeometry>
        </mxCell>
        <mxCell id="rYLVnU9bu6jDrqOBG8kV-4" value="POST /Account/Register&lt;div&gt;(LoginDTO)&lt;/div&gt;&lt;div&gt;[&lt;span style=&quot;background-color: initial;&quot;&gt;Email, Password ]&lt;/span&gt;&lt;/div&gt;" style="text;html=1;align=center;verticalAlign=middle;resizable=0;points=[];autosize=1;strokeColor=none;fillColor=none;" vertex="1" parent="1">
          <mxGeometry x="-5" y="148" width="150" height="60" as="geometry" />
        </mxCell>
        <mxCell id="rYLVnU9bu6jDrqOBG8kV-9" value="" style="endArrow=classic;html=1;rounded=0;dashed=1;entryX=1.304;entryY=0.231;entryDx=0;entryDy=0;entryPerimeter=0;" edge="1" parent="1">
          <mxGeometry width="50" height="50" relative="1" as="geometry">
            <mxPoint x="140" y="290" as="sourcePoint" />
            <mxPoint x="3.0399999999999636" y="289.88" as="targetPoint" />
          </mxGeometry>
        </mxCell>
        <mxCell id="rYLVnU9bu6jDrqOBG8kV-13" value="BadRequest" style="text;html=1;align=center;verticalAlign=middle;resizable=0;points=[];autosize=1;strokeColor=none;fillColor=none;" vertex="1" parent="1">
          <mxGeometry x="25" y="261" width="90" height="30" as="geometry" />
        </mxCell>
        <mxCell id="rYLVnU9bu6jDrqOBG8kV-14" value="CreateAsync" style="html=1;verticalAlign=bottom;endArrow=block;labelBackgroundColor=none;fontFamily=Verdana;fontSize=12;elbow=vertical;edgeStyle=orthogonalEdgeStyle;curved=1;entryX=1;entryY=0.286;entryPerimeter=0;exitX=1.038;exitY=0.345;exitPerimeter=0;" edge="1" parent="1">
          <mxGeometry x="-0.2309" y="11" relative="1" as="geometry">
            <mxPoint x="296.96000000000004" y="327" as="sourcePoint" />
            <mxPoint x="301.96000000000004" y="365" as="targetPoint" />
            <Array as="points">
              <mxPoint x="351.96000000000004" y="327" />
              <mxPoint x="351.96000000000004" y="365" />
            </Array>
            <mxPoint x="-2" y="-7" as="offset" />
          </mxGeometry>
        </mxCell>
        <mxCell id="rYLVnU9bu6jDrqOBG8kV-16" value="BadRequest" style="text;html=1;align=center;verticalAlign=middle;resizable=0;points=[];autosize=1;strokeColor=none;fillColor=none;" vertex="1" parent="1">
          <mxGeometry x="30" y="340" width="90" height="30" as="geometry" />
        </mxCell>
      </root>
    </mxGraphModel>
  </diagram>
</mxfile>
